<?xml version="1.0" encoding="UTF-8"?>
<svg xmlns="http://www.w3.org/2000/svg" xmlns:xlink="http://www.w3.org/1999/xlink" width="256pt" height="256pt" viewBox="0 0 256 256" version="1.1">
<g id="surface1">
<path style=" stroke:none;fill-rule:nonzero;fill:rgb(95.294118%,56.078431%,9.803922%);fill-opacity:1;" d="M 127.753906 0.242188 C 93.386719 0.242188 61.808594 13.339844 37.453125 37.695312 C 13.097656 62.050781 0 93.628906 0 128 C 0 162.371094 13.097656 193.945312 37.453125 218.300781 C 57.90625 238.753906 83.46875 251.269531 112.398438 254.992188 C 123.757812 256.453125 141.171875 255.714844 153.585938 253.238281 C 198.277344 244.335938 236.460938 209.71875 249.839844 165.976562 C 263.878906 120.082031 251.835938 71.472656 218.058594 37.695312 C 193.703125 13.339844 162.125 0.242188 127.753906 0.242188 Z M 126.59375 10.261719 C 145.082031 10.09375 163.558594 14.28125 180.398438 22.71875 C 203.476562 34.28125 221.472656 52.277344 233.035156 75.359375 C 249.65625 108.53125 249.65625 147.464844 233.035156 180.636719 C 227.238281 192.214844 221.460938 200.351562 212.257812 209.910156 C 192.785156 230.140625 167.003906 242.472656 138.328125 245.273438 C 116.941406 247.363281 94.871094 243.175781 75.117188 233.277344 C 63.539062 227.476562 55.398438 221.703125 45.839844 212.5 C 8.96875 177.003906 -0.527344 121.269531 22.476562 75.359375 C 36.300781 47.761719 60.054688 26.882812 89.140625 16.757812 C 101.285156 12.53125 113.941406 10.378906 126.59375 10.261719 Z M 126.59375 10.261719 "/>
<path style=" stroke:none;fill-rule:nonzero;fill:rgb(95.294118%,56.078431%,9.803922%);fill-opacity:1;" d="M 128.535156 188.191406 C 121.839844 188.191406 115.082031 186.15625 115.082031 181.601562 L 115.082031 113.5625 C 115.082031 109.007812 121.839844 106.96875 128.535156 106.96875 C 135.234375 106.96875 141.988281 109.007812 141.988281 113.5625 L 141.988281 181.601562 C 141.988281 186.15625 135.234375 188.191406 128.535156 188.191406 Z M 120.652344 181.074219 C 121.445312 181.613281 124.058594 182.625 128.535156 182.625 C 133.015625 182.625 135.628906 181.617188 136.421875 181.074219 L 136.421875 114.085938 C 135.628906 113.546875 133.015625 112.535156 128.535156 112.535156 C 124.054688 112.535156 121.445312 113.542969 120.652344 114.085938 Z M 120.652344 181.074219 "/>
<path style=" stroke:none;fill-rule:nonzero;fill:rgb(95.294118%,56.078431%,9.803922%);fill-opacity:1;" d="M 139.472656 185.792969 C 138.988281 185.792969 138.5 185.667969 138.066406 185.410156 C 137.214844 184.910156 136.691406 184 136.691406 183.011719 L 136.691406 112.011719 C 136.691406 111 137.238281 110.070312 138.121094 109.578125 L 178.636719 87.011719 C 179.5 86.53125 180.550781 86.542969 181.402344 87.042969 C 182.25 87.546875 182.777344 88.457031 182.777344 89.445312 L 182.777344 160.445312 C 182.777344 161.453125 182.230469 162.382812 181.347656 162.875 L 140.832031 185.441406 C 140.410156 185.679688 139.941406 185.792969 139.472656 185.792969 Z M 142.257812 113.648438 L 142.257812 178.273438 L 177.207031 158.808594 L 177.207031 94.179688 Z M 142.257812 113.648438 "/>
<path style=" stroke:none;fill-rule:nonzero;fill:rgb(95.294118%,56.078431%,9.803922%);fill-opacity:1;" d="M 117.859375 185.792969 C 117.390625 185.792969 116.925781 185.679688 116.503906 185.441406 L 75.992188 162.875 C 75.109375 162.382812 74.5625 161.453125 74.5625 160.445312 L 74.5625 89.445312 C 74.5625 88.457031 75.085938 87.542969 75.933594 87.042969 C 76.785156 86.542969 77.839844 86.527344 78.699219 87.011719 L 119.214844 109.578125 C 120.097656 110.066406 120.644531 111 120.644531 112.007812 L 120.644531 183.007812 C 120.644531 183.996094 120.121094 184.910156 119.273438 185.410156 C 118.835938 185.667969 118.347656 185.792969 117.859375 185.792969 Z M 80.128906 158.804688 L 115.078125 178.269531 L 115.078125 113.648438 L 80.128906 94.179688 Z M 80.128906 158.804688 "/>
<path style=" stroke:none;fill-rule:nonzero;fill:rgb(95.294118%,56.078431%,9.803922%);fill-opacity:1;" d="M 133.351562 123.929688 L 124.53125 123.929688 C 123.851562 123.929688 123.304688 123.378906 123.304688 122.699219 C 123.304688 122.023438 123.851562 121.472656 124.53125 121.472656 L 133.351562 121.472656 C 134.03125 121.472656 134.578125 122.023438 134.578125 122.699219 C 134.578125 123.378906 134.03125 123.929688 133.351562 123.929688 Z M 133.351562 123.929688 "/>
<path style=" stroke:none;fill-rule:nonzero;fill:rgb(95.294118%,56.078431%,9.803922%);fill-opacity:1;" d="M 133.351562 129.398438 L 124.53125 129.398438 C 123.851562 129.398438 123.304688 128.847656 123.304688 128.167969 C 123.304688 127.492188 123.851562 126.941406 124.53125 126.941406 L 133.351562 126.941406 C 134.03125 126.941406 134.578125 127.492188 134.578125 128.167969 C 134.578125 128.847656 134.03125 129.398438 133.351562 129.398438 Z M 133.351562 129.398438 "/>
<path style=" stroke:none;fill-rule:nonzero;fill:rgb(95.294118%,56.078431%,9.803922%);fill-opacity:1;" d="M 133.351562 134.867188 L 124.53125 134.867188 C 123.851562 134.867188 123.304688 134.320312 123.304688 133.640625 C 123.304688 132.960938 123.851562 132.410156 124.53125 132.410156 L 133.351562 132.410156 C 134.03125 132.410156 134.578125 132.960938 134.578125 133.640625 C 134.578125 134.320312 134.03125 134.867188 133.351562 134.867188 Z M 133.351562 134.867188 "/>
<path style=" stroke:none;fill-rule:nonzero;fill:rgb(95.294118%,56.078431%,9.803922%);fill-opacity:1;" d="M 80.859375 91.695312 C 79.96875 91.695312 79.144531 91.113281 78.878906 90.214844 C 78.550781 89.117188 79.179688 87.964844 80.277344 87.640625 L 87.570312 85.480469 C 88.667969 85.15625 89.816406 85.78125 90.144531 86.878906 C 90.46875 87.976562 89.839844 89.128906 88.746094 89.453125 L 81.453125 91.613281 C 81.253906 91.667969 81.054688 91.695312 80.859375 91.695312 Z M 80.859375 91.695312 "/>
<path style=" stroke:none;fill-rule:nonzero;fill:rgb(95.294118%,56.078431%,9.803922%);fill-opacity:1;" d="M 125.699219 111.535156 C 125.339844 111.535156 124.980469 111.445312 124.652344 111.253906 L 87.105469 89.25 C 86.121094 88.671875 85.789062 87.40625 86.367188 86.417969 C 86.945312 85.433594 88.214844 85.097656 89.203125 85.675781 L 126.746094 107.679688 C 127.730469 108.257812 128.0625 109.523438 127.484375 110.511719 C 127.101562 111.167969 126.40625 111.535156 125.699219 111.535156 Z M 125.699219 111.535156 "/>
<path style=" stroke:none;fill-rule:nonzero;fill:rgb(95.294118%,56.078431%,9.803922%);fill-opacity:1;" d="M 175.941406 91.695312 C 175.746094 91.695312 175.546875 91.667969 175.351562 91.609375 L 168.058594 89.449219 C 166.960938 89.125 166.335938 87.972656 166.660156 86.875 C 166.984375 85.78125 168.136719 85.15625 169.234375 85.476562 L 176.527344 87.640625 C 177.621094 87.964844 178.246094 89.117188 177.921875 90.210938 C 177.65625 91.113281 176.835938 91.695312 175.941406 91.695312 Z M 175.941406 91.695312 "/>
<path style=" stroke:none;fill-rule:nonzero;fill:rgb(95.294118%,56.078431%,9.803922%);fill-opacity:1;" d="M 131.105469 111.535156 C 130.394531 111.535156 129.699219 111.167969 129.316406 110.511719 C 128.738281 109.523438 129.066406 108.257812 130.054688 107.679688 L 167.601562 85.675781 C 168.585938 85.097656 169.855469 85.429688 170.433594 86.417969 C 171.011719 87.40625 170.679688 88.671875 169.691406 89.25 L 132.148438 111.253906 C 131.820312 111.445312 131.460938 111.535156 131.105469 111.535156 Z M 131.105469 111.535156 "/>
<path style=" stroke:none;fill-rule:nonzero;fill:rgb(95.294118%,56.078431%,9.803922%);fill-opacity:1;" d="M 128.996094 210.914062 L 56.164062 168.863281 L 56.164062 84.765625 L 128.996094 42.714844 L 201.828125 84.765625 L 201.828125 168.863281 Z M 63.554688 164.59375 L 128.996094 202.378906 L 194.4375 164.59375 L 194.4375 89.03125 L 128.996094 51.246094 L 63.554688 89.03125 Z M 63.554688 164.59375 "/>
</g>
</svg>
